{
    "asset" : {
        "generator" : "Khronos glTF Blender I/O v1.6.16",
        "version" : "2.0"
    },
    "scene" : 0,
    "scenes" : [
        {
            "name" : "Scene",
            "nodes" : [
                5
            ]
        }
    ],
    "nodes" : [
        {
            "mesh" : 0,
            "name" : "mushroom_02_mushroom_02_0"
        },
        {
            "children" : [
                0
            ],
            "name" : "mushroom_02",
            "rotation" : [
                -0.7071068286895752,
                0,
                0,
                0.7071068286895752
            ],
            "scale" : [
                100,
                100,
                100
            ],
            "translation" : [
                -81.741943359375,
                91.92961120605469,
                -167.22703552246094
            ]
        },
        {
            "children" : [
                1
            ],
            "name" : "RootNode"
        },
        {
            "children" : [
                2
            ],
            "name" : "mushrooms.fbx",
            "rotation" : [
                0.7071068286895752,
                0,
                0,
                0.7071068286895752
            ]
        },
        {
            "children" : [
                3
            ],
            "name" : "RootNode (model correction matrix)"
        },
        {
            "children" : [
                4
            ],
            "name" : "RootNode (gltf orientation matrix)",
            "rotation" : [
                -0.7071068286895752,
                0,
                0,
                0.7071068286895752
            ]
        }
    ],
    "materials" : [
        {
            "doubleSided" : true,
            "name" : "mushroom_02.001",
            "normalTexture" : {
                "index" : 0
            },
            "pbrMetallicRoughness" : {
                "baseColorTexture" : {
                    "index" : 1
                },
                "metallicFactor" : 0.05000000074505806,
                "roughnessFactor" : 0.5246913433074951
            }
        }
    ],
    "meshes" : [
        {
            "name" : "mushroom_02_mushroom_02_0",
            "primitives" : [
                {
                    "attributes" : {
                        "POSITION" : 0,
                        "NORMAL" : 1,
                        "TEXCOORD_0" : 2
                    },
                    "indices" : 3,
                    "material" : 0
                }
            ]
        }
    ],
    "textures" : [
        {
            "sampler" : 0,
            "source" : 0
        },
        {
            "sampler" : 0,
            "source" : 1
        }
    ],
    "images" : [
        {
            "bufferView" : 4,
            "mimeType" : "image/jpeg",
            "name" : "mushroom_02_normal"
        },
        {
            "bufferView" : 5,
            "mimeType" : "image/jpeg",
            "name" : "mushroom_02_baseColor"
        }
    ],
    "accessors" : [
        {
            "bufferView" : 0,
            "componentType" : 5126,
            "count" : 727,
            "max" : [
                0.39551645517349243,
                0.3972313404083252,
                0.34941262006759644
            ],
            "min" : [
                -0.40151575207710266,
                -0.38450103998184204,
                -0.6476306915283203
            ],
            "type" : "VEC3"
        },
        {
            "bufferView" : 1,
            "componentType" : 5126,
            "count" : 727,
            "type" : "VEC3"
        },
        {
            "bufferView" : 2,
            "componentType" : 5126,
            "count" : 727,
            "type" : "VEC2"
        },
        {
            "bufferView" : 3,
            "componentType" : 5123,
            "count" : 3000,
            "type" : "SCALAR"
        }
    ],
    "bufferViews" : [
        {
            "buffer" : 0,
            "byteLength" : 8724,
            "byteOffset" : 0
        },
        {
            "buffer" : 0,
            "byteLength" : 8724,
            "byteOffset" : 8724
        },
        {
            "buffer" : 0,
            "byteLength" : 5816,
            "byteOffset" : 17448
        },
        {
            "buffer" : 0,
            "byteLength" : 6000,
            "byteOffset" : 23264
        },
        {
            "buffer" : 0,
            "byteLength" : 960425,
            "byteOffset" : 29264
        },
        {
            "buffer" : 0,
            "byteLength" : 719829,
            "byteOffset" : 989692
        }
    ],
    "samplers" : [
        {
            "magFilter" : 9729,
            "minFilter" : 9987
        }
    ],
    "buffers" : [
        {
            "byteLength" : 1709524,
            "uri" : "data:application/octet-stream;base64,"
        }
    ]
}
