{
    "asset" : {
        "generator" : "Khronos glTF Blender I/O v1.6.16",
        "version" : "2.0"
    },
    "scene" : 0,
    "scenes" : [
        {
            "name" : "Scene",
            "nodes" : [
                5
            ]
        }
    ],
    "nodes" : [
        {
            "mesh" : 0,
            "name" : "mushroom_10_mushroom_10_0"
        },
        {
            "children" : [
                0
            ],
            "name" : "mushroom_10",
            "rotation" : [
                -0.7071068286895752,
                0,
                0,
                0.7071068286895752
            ],
            "scale" : [
                100,
                100,
                100
            ],
            "translation" : [
                -81.741943359375,
                91.92961120605469,
                167.22703552246094
            ]
        },
        {
            "children" : [
                1
            ],
            "name" : "RootNode"
        },
        {
            "children" : [
                2
            ],
            "name" : "mushrooms.fbx",
            "rotation" : [
                0.7071068286895752,
                0,
                0,
                0.7071068286895752
            ]
        },
        {
            "children" : [
                3
            ],
            "name" : "RootNode (model correction matrix)"
        },
        {
            "children" : [
                4
            ],
            "name" : "RootNode (gltf orientation matrix)",
            "rotation" : [
                -0.7071068286895752,
                0,
                0,
                0.7071068286895752
            ]
        }
    ],
    "materials" : [
        {
            "doubleSided" : true,
            "name" : "mushroom_10.001",
            "normalTexture" : {
                "index" : 0
            },
            "pbrMetallicRoughness" : {
                "baseColorTexture" : {
                    "index" : 1
                },
                "metallicFactor" : 0.05000000074505806,
                "roughnessFactor" : 0.7777777910232544
            }
        }
    ],
    "meshes" : [
        {
            "name" : "mushroom_10_mushroom_10_0",
            "primitives" : [
                {
                    "attributes" : {
                        "POSITION" : 0,
                        "NORMAL" : 1,
                        "TEXCOORD_0" : 2
                    },
                    "indices" : 3,
                    "material" : 0
                }
            ]
        }
    ],
    "textures" : [
        {
            "sampler" : 0,
            "source" : 0
        },
        {
            "sampler" : 0,
            "source" : 1
        }
    ],
    "images" : [
        {
            "bufferView" : 4,
            "mimeType" : "image/jpeg",
            "name" : "mushroom_10_normal"
        },
        {
            "bufferView" : 5,
            "mimeType" : "image/jpeg",
            "name" : "mushroom_10_baseColor"
        }
    ],
    "accessors" : [
        {
            "bufferView" : 0,
            "componentType" : 5126,
            "count" : 1183,
            "max" : [
                0.47456252574920654,
                0.4140581488609314,
                0.2643575966358185
            ],
            "min" : [
                -0.4636862277984619,
                -0.4118983745574951,
                -0.3893551826477051
            ],
            "type" : "VEC3"
        },
        {
            "bufferView" : 1,
            "componentType" : 5126,
            "count" : 1183,
            "type" : "VEC3"
        },
        {
            "bufferView" : 2,
            "componentType" : 5126,
            "count" : 1183,
            "type" : "VEC2"
        },
        {
            "bufferView" : 3,
            "componentType" : 5123,
            "count" : 3000,
            "type" : "SCALAR"
        }
    ],
    "bufferViews" : [
        {
            "buffer" : 0,
            "byteLength" : 14196,
            "byteOffset" : 0
        },
        {
            "buffer" : 0,
            "byteLength" : 14196,
            "byteOffset" : 14196
        },
        {
            "buffer" : 0,
            "byteLength" : 9464,
            "byteOffset" : 28392
        },
        {
            "buffer" : 0,
            "byteLength" : 6000,
            "byteOffset" : 37856
        },
        {
            "buffer" : 0,
            "byteLength" : 1157245,
            "byteOffset" : 43856
        },
        {
            "buffer" : 0,
            "byteLength" : 942404,
            "byteOffset" : 1201104
        }
    ],
    "samplers" : [
        {
            "magFilter" : 9729,
            "minFilter" : 9987
        }
    ],
    "buffers" : [
        {
            "byteLength" : 2143508,
            "uri" : "data:application/octet-stream;base64,"
        }
    ]
}
